<?xml version="1.0" encoding="utf-8"?>
<!-- Generator: Adobe Illustrator 21.0.0, SVG Export Plug-In . SVG Version: 6.00 Build 0)  -->
<svg version="1.1" id="Layer_1" xmlns="http://www.w3.org/2000/svg" xmlns:xlink="http://www.w3.org/1999/xlink" x="0px" y="0px"
	 viewBox="0 0 401.3 52.1" style="enable-background:new 0 0 401.3 52.1;" xml:space="preserve">
<style type="text/css">
	.st0{fill:#FFFFFF;}
</style>
<g>
	<path class="st0" d="M96,0.8h3l14.7,31.7c1.2,2.4,2.4,5.7,2.4,5.7h0.1c0,0,1.3-3.2,2.4-5.7l14.7-31.7h3l4,50.4h-3.1l-3.1-38.5
		c-0.2-2.4-0.2-6.7-0.2-6.7h-0.1c0,0-1.4,4.2-2.6,6.7l-13.5,28.7h-3.2l-13.5-28.7c-1.1-2.4-2.7-6.8-2.7-6.8h-0.1c0,0,0,4.4-0.2,6.8
		l-3.1,38.5H92L96,0.8z"/>
	<path class="st0" d="M183.8,0c14,0,25.5,11.2,25.5,25.7c0,14.8-11.4,26.4-25.5,26.4c-14,0-25.5-11.6-25.5-26.4
		C158.3,11.2,169.7,0,183.8,0z M183.8,49.2c12.3,0,22.2-10.2,22.2-23.5c0-12.9-9.9-22.8-22.2-22.8c-12.3,0-22.2,9.9-22.2,22.8
		C161.5,38.9,171.5,49.2,183.8,49.2z"/>
	<path class="st0" d="M228.5,0.8h14.8c4.7,0,7.1,0.5,9.1,1.5c4.2,2.1,7,6.3,7,12.1c0,7.2-4.2,12.6-10.1,13.9v0.1
		c0,0,0.5,0.6,1.2,1.8l11.3,21H258l-12-22.3h-14.5v22.3h-3.1V0.8z M245.3,26c6.6,0,10.8-4.8,10.8-11.6c0-4.5-2.2-8.1-5.9-9.7
		c-1.4-0.6-3-1-7.1-1h-11.5V26H245.3z"/>
	<path class="st0" d="M280.4,0.8H308v2.9h-24.5v20.7h20.1v2.9h-20.1v21.1h25.9v2.9h-28.9V0.8z"/>
</g>
</svg>
