<?xml version="1.0" encoding="utf-8"?>
<!-- Generator: Adobe Illustrator 21.0.0, SVG Export Plug-In . SVG Version: 6.00 Build 0)  -->
<svg version="1.1" id="Layer_1" xmlns="http://www.w3.org/2000/svg" xmlns:xlink="http://www.w3.org/1999/xlink" x="0px" y="0px"
	 viewBox="0 0 401.3 52.1" style="enable-background:new 0 0 401.3 52.1;" xml:space="preserve">
<style type="text/css">
	.st0{fill:#FFFFFF;}
</style>
<g>
	<g>
		<path class="st0" d="M25.5,0C39.5,0,51,11.2,51,25.7c0,14.8-11.4,26.4-25.5,26.4C11.4,52.1,0,40.5,0,25.7C0,11.2,11.4,0,25.5,0z
			 M25.5,49.2c12.3,0,22.2-10.2,22.2-23.5C47.7,12.8,37.8,3,25.5,3C13.2,3,3.2,12.8,3.2,25.7C3.2,39,13.2,49.2,25.5,49.2z"/>
		<path class="st0" d="M63.4,0.9h3.3l15.2,40.8c0.9,2.4,1.9,6,1.9,6H84c0,0,1.1-3.7,1.9-6l15.3-40.8h3.3L85.6,51.3h-3.4L63.4,0.9z"
			/>
		<path class="st0" d="M120.7,0.9h27.6v2.9h-24.5v20.7h20.1v2.9h-20.1v21.1h25.9v2.9h-28.9V0.9z"/>
		<path class="st0" d="M169,0.9h14.8c4.7,0,7.1,0.5,9.1,1.5c4.2,2.1,7,6.3,7,12.1c0,7.2-4.2,12.6-10.1,13.9v0.1c0,0,0.5,0.6,1.2,1.8
			l11.3,21h-3.7l-12-22.3h-14.5v22.3H169V0.9z M185.8,26.1c6.6,0,10.8-4.8,10.8-11.6c0-4.5-2.2-8.1-5.9-9.7c-1.4-0.6-3-1-7.1-1
			h-11.5v22.3H185.8z"/>
		<path class="st0" d="M214.3,0.9h3.3l15.2,40.8c0.9,2.4,1.9,6,1.9,6h0.1c0,0,1.1-3.7,1.9-6l15.3-40.8h3.3l-18.9,50.4h-3.4
			L214.3,0.9z"/>
		<path class="st0" d="M271.7,0.9h3.1v50.4h-3.1V0.9z"/>
		<path class="st0" d="M297.5,0.9h27.6v2.9h-24.5v20.7h20.1v2.9h-20.1v21.1h25.9v2.9h-28.9V0.9z"/>
		<path class="st0" d="M370.9,5.3c0,0-1,4.8-1.9,8l-10.7,38h-3.9L341.1,0.9h3.2l10.7,41c0.6,2.4,1.2,5.4,1.2,5.4h0.1
			c0.1,0,0.6-2.9,1.4-5.4l11.5-41h3.5l11.5,41c0.7,2.5,1.3,5.4,1.4,5.4h0.1c0,0,0.6-3,1.2-5.4l11-41h3.2l-13.6,50.4h-3.9l-10.7-38
			c-0.9-3.2-1.9-8-1.9-8H371H370.9z"/>
	</g>
</g>
</svg>
