<?xml version="1.0" encoding="utf-8"?>
<!-- Generator: Adobe Illustrator 21.0.0, SVG Export Plug-In . SVG Version: 6.00 Build 0)  -->
<svg version="1.1" id="Layer_1" xmlns="http://www.w3.org/2000/svg" xmlns:xlink="http://www.w3.org/1999/xlink" x="0px" y="0px"
	 viewBox="0 0 401.3 52.1" style="enable-background:new 0 0 401.3 52.1;" xml:space="preserve">
<style type="text/css">
	.st0{fill:#FFFFFF;}
</style>
<g>
	<path class="st0" d="M23.7,0.8h16.6c8.8,0,15.3,5.5,15.3,14.7c0,9.1-6.6,14.8-15.3,14.8H26.8v20.9h-3.1V0.8z M40.1,27.5
		c7.3,0,12.2-4.4,12.2-12c0-7.6-4.9-11.8-12.2-11.8H26.8v23.8H40.1z"/>
	<path class="st0" d="M73.5,0.8h14.8c4.7,0,7.1,0.5,9.1,1.5c4.2,2.1,7,6.3,7,12.1c0,7.2-4.2,12.6-10.1,13.9v0.1c0,0,0.5,0.6,1.2,1.8
		l11.3,21h-3.7l-12-22.3H76.6v22.3h-3.1V0.8z M90.3,26c6.6,0,10.8-4.8,10.8-11.6c0-4.5-2.2-8.1-5.9-9.7c-1.4-0.6-3-1-7.1-1H76.6V26
		H90.3z"/>
	<path class="st0" d="M147.4,0c14,0,25.5,11.2,25.5,25.7c0,14.8-11.4,26.4-25.5,26.4c-14,0-25.5-11.6-25.5-26.4
		C121.9,11.2,133.4,0,147.4,0z M147.4,49.2c12.3,0,22.2-10.2,22.2-23.5c0-12.9-9.9-22.8-22.2-22.8c-12.3,0-22.2,9.9-22.2,22.8
		C125.2,38.9,135.1,49.2,147.4,49.2z"/>
	<path class="st0" d="M187.1,35.9h3.1v1.7c0,3.3,0.8,5.8,2,7.6c2,2.9,5.3,4,8.4,4c5,0,10.4-2.9,10.4-11.6V3.7h-12V0.8h15.1v36.7
		c0,10.8-6.9,14.6-13.5,14.6c-6.6,0-13.5-3.8-13.5-14.6V35.9z"/>
	<path class="st0" d="M236.3,0.8h27.6v2.9h-24.5v20.7h20.1v2.9h-20.1v21.1h25.9v2.9h-28.9V0.8z"/>
	<path class="st0" d="M305.7,0c12,0,18,6.3,18,6.3l-1.9,2.3c0,0-6-5.7-16.1-5.7c-12.4,0-21.8,9.7-21.8,22.8c0,13.1,9.4,23.5,22,23.5
		c10.8,0,17.1-6.8,17.1-6.8l1.9,2.2c0,0-6.8,7.6-19,7.6c-14.7,0-25.3-11.8-25.3-26.4C280.7,11.1,291.5,0,305.7,0z"/>
	<path class="st0" d="M355.7,3.7h-18.8V0.8h40.7v2.9h-18.8v47.5h-3.1V3.7z"/>
</g>
</svg>
