<?xml version="1.0" encoding="utf-8"?>
<!-- Generator: Adobe Illustrator 21.0.0, SVG Export Plug-In . SVG Version: 6.00 Build 0)  -->
<svg version="1.1" id="Starz" xmlns="http://www.w3.org/2000/svg" xmlns:xlink="http://www.w3.org/1999/xlink" x="0px" y="0px"
	 viewBox="0 0 208.8 50.3" style="enable-background:new 0 0 208.8 50.3;" xml:space="preserve">
<style type="text/css">
	.st0{fill:#FFFFFF;}
</style>
<g>
	<g>
		<path class="st0" d="M206.6,45c1.2,0,2.2,1,2.2,2.3c0,1.3-1,2.3-2.2,2.3c-1.2,0-2.2-1-2.2-2.3C204.4,46,205.3,45,206.6,45z
			 M206.6,49.1c1,0,1.8-0.8,1.8-1.8c0-1-0.8-1.8-1.8-1.8c-1,0-1.7,0.8-1.7,1.8C204.8,48.3,205.6,49.1,206.6,49.1z M205.8,46.1h0.9
			c0.4,0,0.7,0.3,0.7,0.7c0,0.4-0.2,0.6-0.4,0.6v0c0,0,0,0,0.1,0.1l0.4,0.9H207l-0.4-0.9h-0.4v0.9h-0.4V46.1z M206.6,47.2
			c0.2,0,0.4-0.1,0.4-0.4c0-0.2-0.1-0.4-0.4-0.4h-0.4v0.8H206.6z"/>
	</g>
	<g>
		<path class="st0" d="M79.3,49.4l3.8-7.6h21l3.8,7.6h10.3L93.7,0.6L69.2,49.4H79.3z M87.7,32.9l6-11.9l6,11.9H87.7z"/>
		<polygon class="st0" points="77.8,0.8 39.2,0.8 39.2,9.7 53.6,9.7 53.6,49.4 63.4,49.4 63.4,9.7 77.8,9.7 		"/>
		<path class="st0" d="M155.8,15.7c0-4.3-1.5-8-4.5-10.6c-3-2.8-7.3-4.2-12.5-4.2h-18.3v48.6h9.9V31.7h7l10.2,17.7h11.3l-11.5-20.1
			C154.8,25.9,155.8,19.3,155.8,15.7z M137.7,22.2h-7.2V9.7h7.2c5.3,0,8.2,2.1,8.2,6.2C145.9,20,142.8,22.2,137.7,22.2z"/>
		<polygon class="st0" points="203.5,0.8 163.3,0.8 163.3,9.7 186.3,9.7 161.4,49.4 203,49.4 203,40.5 178.5,40.5 		"/>
		<path class="st0" d="M21.7,20.7c-8-1.9-10.8-3.2-10.8-6.9c0-3.1,2.8-5,7-5c6.4,0,12.2,4.4,13.8,5.8l4.1-8.4
			C30.7,2.1,24.9,0,18.1,0C8.2,0,1.2,6,1.2,14.5c0,9.3,6,12.5,16.4,15c8.7,2,10.2,3.7,10.2,6.6c0,3.4-3,5.4-7.7,5.4
			c-5.8,0-10.5-2.2-16-7.3L0,42.9c5.6,4.8,12.5,7.4,19.8,7.4c10.7,0,17.7-5.8,17.7-15C37.5,27.6,32.9,23.4,21.7,20.7z"/>
	</g>
</g>
</svg>
