<?xml version="1.0" encoding="utf-8"?>
<!-- Generator: Adobe Illustrator 21.0.0, SVG Export Plug-In . SVG Version: 6.00 Build 0)  -->
<svg version="1.1" id="Layer_1" xmlns="http://www.w3.org/2000/svg" xmlns:xlink="http://www.w3.org/1999/xlink" x="0px" y="0px"
	 viewBox="0 0 300.9 62.8" style="enable-background:new 0 0 300.9 62.8;" xml:space="preserve">
<style type="text/css">
	.st0{fill:#FFFFFF;}
</style>
<g>
	<path class="st0" d="M264.5,0.5c-2.3-0.1-8.7-0.1-10.3,1h-0.4c-0.6,3.2-0.7,10.7,0,13.9c0.5,2.4-0.1,5,0.4,7.1
		c0.1,2.7,0.1,5.4,0.2,8.1c0.5,2.5,0.3,7.5-0.2,9.9c-0.7,3.4,0.9,10.1-2,11.1v0.2c-4.2,0.1-3.6-0.5-5.8-2.2V12
		c0.1-0.1-1.6-0.2-1,0.4c-0.3,1.4-6.8,0.9-7.9-0.2c0.2-0.3,2.5-3.4,3-3.4c0.6,0.8,1.1,0.5,0.8,0c0.3-0.4,0.4-0.8,0.4-1.2
		c1.8,0,3.2,1.8,4.8,1.8c0-2.4,0.5-5.9-0.2-7.9c-2.5-0.5-5.9-0.2-8.7-0.2c-1,0-2.7-0.2-3.4,0.2c-0.5,0.2-1,1.1-1.2,1.6
		c-0.4,1.1,0.3,8.6,0.6,9.9c0.6,2.6,0.2,6.4,0.2,9.3c0.3,8.1,0.5,16.1,0.8,24.2c0.6,2.8-1,7.5,0.6,9.3c0.2,0.2,0,0.1,0.4,0.2
		c0.6-1.2,2-2.6,3.6-2.8c-0.1-0.5-0.1-0.5,0-1.2l0.2-0.2c0.7,0.1,0.7,0,1,0.4c1-0.2,2.1-0.9,2.6-1.6c0.2-0.3,0-0.5,0-1.2
		c0.3,0.2,0.7,0.4,1,0.6c0.3-0.5,0.2-0.6,0.4-1v-0.2h0.2c-0.1,1.7-0.9,1.8-1.2,3.2c0.6,0,0.6-0.1,0.8,0c0.5,0.3,0.4,0.7,0.8,1
		c-0.2,1.2-0.8,1.1-1.4,1.8c-0.7,0.9-1.1,1.7-1.8,2.6c-0.7,0.9-1.9,1.1-2.4,2.2h-0.2c0.6,1.5,3,1.6,4.6,2.2c7.2,2.7,19.2-0.2,21.6-5
		c-0.4-0.2-0.8-0.4-1.2-0.6v-4.4c-1.2-0.1-2.3-0.5-3-1.2c-0.7,0-1.3,0-1.8,0.2c-0.2,0.8-0.1,1.3,0,2.2c-0.4-0.1-0.8-0.1-1.2-0.2
		c-0.2-0.5-0.4-0.9-0.8-1.2c0-3.8,1.3-1.1,3.2-2.2c0.1-0.2,0.1-0.4,0.2-0.6c0.6-0.1,1.2-0.3,1.8-0.4c0.3-0.2,0.4-1,0.8-1.2
		c0.4-0.3,0.9-0.1,1.2-0.4c0.9,0,1,0.1,1.4,0.6h0.4V16.2V3.3C265.9,2.3,265,1.4,264.5,0.5 M240.5,21.3h0.2v0.8h-0.4
		C240.3,21.9,240.4,21.6,240.5,21.3 M239.5,20.4h0.4l-0.2,0.2V21h-0.4C239.3,20.8,239.4,20.6,239.5,20.4 M240.1,46.4
		c-0.6-0.1-0.5,0-0.8-0.4c-0.2-0.2,1.5-4.8,1.6-6c0.2,0.1,0.4,0.1,0.6,0.2c0.1,0.4,0.1,0.5,0.4,0.8
		C241.9,45.1,242.1,44.4,240.1,46.4 M246.4,58.5c-0.9-0.2-1.4-0.8-2-1.4v-0.2c1.3,0.2,0.6,0.5,1.4,0.2c0.2,0.6,0.1,0.5,0.6,0.8V58.5
		z M259.5,16.8c0.7-0.5,2.3-0.8,3.4-0.8c-0.1,0.6-0.1,0.9-0.4,1.2c-0.1,0.1-0.1,0.3-0.2,0.4h-3.2C259.2,17.1,259.3,17.1,259.5,16.8
		 M258.5,12c-0.5-0.2-0.6-0.7-0.6-1.2h0.8C258.6,11.2,258.6,11.6,258.5,12 M260.3,26.7c-0.5,0-0.7,0-1,0.2h-0.2v-1.8
		c0.7,0.2,1,0.5,1.6,0.8C260.5,26.4,260.5,26.4,260.3,26.7 M261.7,48.1h-0.4v-0.2c0-0.5,0.7-0.9,0-1.4c0.2-0.5,0.2-0.5,0.4-1
		c0.6,0.2,0.6,0.1,1.2,0.2c-0.2,0.2,0,0.1-0.4,0.2c0.2,0.2,0.2,0.1,0.6,0.2c0,0.9-0.1,0.4,0.2,1C262.6,47.3,262.1,47.6,261.7,48.1
		 M265.7,44.4c-0.4,0.8-0.9-0.1-0.6,1.2c-0.5-0.3-0.2,0-0.4-0.6c-0.5,0.3-0.2,0-0.4,0.6h-0.2c-0.1-0.2-0.2-0.6-0.4-0.8
		c-0.4-0.3-0.1,0.3-0.6,0c-0.3-0.2-0.2-0.8-0.8-1.2v-0.2c0.3,0.1,0.7,0.1,1,0.2V43c0.3-0.1,0.5-0.2,1-0.2c0.1-0.5,0.3-0.7,0-1.2V41
		c0.5,0.3,0.2,0,0.4,0.6h0.8C265.6,42.1,266,43.6,265.7,44.4"/>
	<path class="st0" d="M238.9,11.7c0.8,2,5.4-0.3,2.4-1.4c-0.2,0.2,0.2,0.9,0.2,1.4C239.2,10.7,241,10.5,238.9,11.7"/>
	<path class="st0" d="M263.9,43.8c0.1,0.5,0.2,0.4,0.4,0.8h0.6c0-1.3,0.3-0.9,0.4-2.2h-0.6C264.6,43.2,264.4,43.4,263.9,43.8"/>
	<path class="st0" d="M66,6.6c-0.8-1.2-5-4.1-6.5-4.6c-1.8-0.2-3.7-0.4-5.6-0.6C50.6,0.7,45.8,1,41.9,1c-1.5,0-3.7-0.3-4.6,0.4
		c-0.4,0.3-0.6,0.4-0.8,1c-1.1,1.8,0.4,5.3,0,7.3c-0.4,2-0.2,5-0.2,7.3c0,2.4,0.1,5.5-0.4,7.7c-0.4,1.7,0.1,4.1-0.2,5.5
		c-0.4,1.7,0.1,3.9-0.2,5.4c-0.6,2.6,0.9,8.6-0.2,10.5v10.9c0.4-0.2,0.3-0.5,0.6-0.2c0.5,0.3,0.3,0.5,0.8,0.8
		c-0.2,0.1-0.2,0.1-0.6,0.2v-0.6c-0.5,0.2-0.4,0.3-0.8,0.6c0,0.7-0.1,1.8,0.2,2.2c0.1,0.3,0,0.2,0.2,0.4c0.5-1.6,2.8-3.1,4.4-3.6
		h1.4c0.3-0.3,0.7-0.7,1-1c1.1-0.4,4.6-0.3,5,0.4h0.2c0-4-0.9-14.2,0.8-16.5c10.5-0.2,16.3-2.2,18.6-10.7V18.5
		C67,14.6,67.7,9,66,6.6 M38.9,55.8v0.4L38.7,56c-0.2-0.1-0.4-0.1-0.6-0.2c0.1-0.4,0-0.4,0.2-0.6V55c0.1,0.1,0.3,0.1,0.4,0.2V55
		c0.1-0.2,0-0.6,0-1.2C39.3,54.6,39.1,55.4,38.9,55.8 M40.7,55.8h-0.2c-0.1-0.3-0.2-0.5-0.2-1c0.1,0.1,0.3,0.3,0.4,0.4V55.8z
		 M41.1,45.5h-0.2c0.2-1.4,0.4-2.8,0.6-4.2h0.4C41.9,43.2,41.9,44.5,41.1,45.5 M43.6,22.7h-0.4c-0.1-0.5-0.2-0.6-0.4-1
		c0.7-0.3,1.5-0.5,2.2-0.8h0.6C45.2,21.9,44.4,22,43.6,22.7 M54.1,33.6h2.6l0.2,0.2C56.3,35.7,54.9,34.9,54.1,33.6 M59.9,25.8
		c-1.1-0.6-1.7-1.2-3.6-1.2V28h0.4c0.6,0.3,2.7-0.5,3-1.2h0.2c-0.2,1.9-1.8,2-2.2,4c-0.3-0.2-0.7-0.7-1-0.8c-1.8-0.6-5.3,1-7.1-0.4
		c-2-0.7-1.3-2.8-1.8-5.2c-1.1-5.1-0.5-10.9,1.6-14.3c3.2-0.9,4.4-1.3,7.5,0.2c0.6,1.7-0.4,2.5-0.8,4v6.9c0.4,1.3,2.7,3,3.8,3.8
		V25.8z M38.3,55.8c0.4-0.2,0.2-0.1,0-0.4V55.8z"/>
	<path class="st0" d="M31.2,39.3c-2-4.4-8-10.5-11.7-13.3c-1.2-0.9-3.3-2.3-4.2-3.4c-0.9-1.2-0.9-3-1.8-4.2c-0.2-4.4-0.3-6,2.6-7.5
		c0.6-0.3,1.9-1,2.8-0.4c2.9,0.3,2.4,5.5,3.4,7.7c0.4,0.1,0.5,0.1,0.8,0.4c2.8,0,7.5,0.6,9.5-0.4V7.2C30.2,5,28.5,2.4,25,1.3
		c-2-0.7-4.4-0.6-7.1-0.6h-6.9C8.2,1.4,5,3.4,3.6,5.4C2.9,6.5,2.2,8.6,1.8,9.8v4.6c-0.3,1.2-0.4,6.1,0,7.7
		c2.1,7.8,8.7,11.3,13.7,16.2c2.5,2.5,6,4.9,4.4,10.9c-0.5,0.9-0.9,1.9-1.4,2.8c-1.3,0.2-2.2-0.3-3.2-0.8c-0.8-0.4-1.5-0.5-2.2-1
		c-1.3-1-1.4-3.2-2.4-4.6c-1.4-2-4.4-1.8-6.9-1.2c-1.1,0.3-2,0-2.8,0.6c-0.4,0.3-0.6,0.4-0.8,1c-0.7,1,0.1,3.7,0.4,4.8
		c0.5,2.2,0.2,5,1.4,6.5c0.8,1,6.9,5.1,7.7,3.3c0.4-1.1,1.7-2,3-2.5c-0.5-1.4-1.3,0.6-1.6,0.6c0.1-1.4,0.9-1.8,0.6-3.2
		c-0.9,0.2-0.8,0.9-0.8,1.6c-0.4-0.1-3-5.2-3.4-2.4c-0.5-0.5-1.4-0.5-1.8-1C6,52.8,7.2,52,7.2,51c2.6-1.1,4.6,0.4,4.6,0
		c0.7,0.5,1.1,1.1,1.2,2c1.1-0.5,1.2,0,2.4,0c-0.3,0.7,0.5,1.5,0.8,1.2c0.1,0.2,0.3,0.4,0.6,0.4c-0.1,0.5-0.4,0.8-0.4,1.2
		c1.4-0.3,0.8-1.2,0.8-2.4c3.7,1.7-1.3,2.5-1.2,5.9c0-0.5,0.2-0.7,0.6-0.6c-0.2,2.3-2.6-0.8-2.6,3l0.2,0c4.8,0.2,10.2,0,13.1-1.8
		c2.6-1.7,3.8-5,4.8-8.3c0.5-1.6,1.1-4.8,0.6-7.1C32.2,42.8,31.8,40.8,31.2,39.3 M28.6,13.4l0.2,0.2h-0.2c-0.1,0.2-0.1,0.4-0.2,0.6
		c-0.7,0.3-1.5,0.5-2.2,0.8h-1C25.9,13.9,27.6,14.1,28.6,13.4 M17.9,28.8c-0.5-0.3-0.2,0-0.4-0.6c-0.4,0.3-0.6,1.3-1.2,2
		c-0.8,0.4-0.7-0.3-2-0.4v-0.2c0.4-0.1,0.7-0.2,1-0.4c0.2-0.2,0.1-0.2,0.2-0.6h-0.8c0.1-0.1,0.3-0.3,0.4-0.4L14.9,28
		c-0.5,0.2-0.4,0.2-0.6,0.8h-0.4v-0.2c-0.3-0.5,0.3-3.2,0.4-3.4v-0.2c1.3,0.5,1.3,1.5,2,2c0.5,0.3,0.8,0,1.2,0.2
		c0.1,0.1,0.1,0.8,0.4,1.2V28.8z"/>
	<path class="st0" d="M11.9,52.5c-0.9,1.3-1.8,1.6-1.8,3C12.5,55.2,13.1,54.2,11.9,52.5"/>
	<path class="st0" d="M96.6,33.6c-0.5-1.9-0.9-4.2-1.4-6.3c-0.3-1.2,0.1-2.5-0.4-3.4v-0.2c0.3,0.3,0.2,0.1,0.4,0.6
		c1-0.1,1-0.2,1.6-0.6c-0.1-1-0.4-1-0.8-1.6c-1,0-0.5,0-1.4-0.2c-0.3-7.3-2.2-18-3.6-20.8c-3.1-0.7-12.8-2-15.6,0
		c-0.3,0.1-0.2,0-0.4,0.2C73.7,3,73.5,10,72.8,12.8c-2.2,8.6-2.5,18.2-4.6,26.9c-0.7,2.7-0.6,5.4-1.2,7.9c-0.2,1,0.1,2.2-0.4,3
		c0.1,3.4,0.8,6.3-2,7.1c0.1,1,0.2,1.4,0.8,1.8c0.5,0.2,7.1,1.7,8.5,0.8c3,0,2.4-3.5,3.2-5.7c0.3-1,0.8-3.6,1.2-4.4
		c1.5-0.4,8.2,0.1,8.5,0.2c0.6,2.2,1.5,5.3,1.8,7.9c0,0.4,0.1,0.8,0.2,1c0.2,0.3,1.9,1.4,2.6,1.4c0.2,0.1,0.7,0.2,1.4,0.4
		c2.9,0.1,7.3-2.1,7.3-3l0-5.5C99,47.7,96.6,34.8,96.6,33.6 M85.8,39.7c-0.2,0.9-3.8,0.1-5,0c-0.5-1-0.3-7.3,0-8.7
		c0.6-2.7,0.4-10.4,0.4-10.5c-0.4-2,0.1-4.6-0.2-6.3c-0.7-0.1,0.5-3.5,3-5.2c0.5-0.6,2.1,1.4,1,1.6c-0.8,1.3,0,1.8,0,4.1
		c0.7,1.1-1,3.5-0.7,5c0.2,1.1,0.7,3.6,0.7,4.7C85,28.2,86.1,37.9,85.8,39.7"/>
	<path class="st0" d="M177.7,34.8c0.2-2.4,0.8-5.1,0.8-7.3c0-1.2,0.5-2.7,0-3.6c0.1-1.8,0-2.7-1-3.4c0.3-3.3,1.1-6.4,1-9.9
		c-0.9-0.9-2.5-2.2-4-0.8h-0.4V7c1,0,2.3,0,3,0.4c1.5,0.2,1.4,1.2,2.4,1.8c1.1,0.7,2.5,0.8,3.6,1.6c0.9,0.7,1.1,2.5,1.8,3.4
		c-0.4,0.3-1.6,0.1-2,0.4h-0.4c-0.4,5.3-0.8,11.6,0.2,16.4c0.3,1.5-0.3,3.3,0.4,4.4c0,1.4,0.1,3-0.2,4.1c4.1,3.2,8.7,5.8,13.4,8.6
		c-0.1-0.7-0.1-1.3-0.2-2c-0.7-2.9-1.5-5.8-2.2-8.5v-3.8c-1.4-5.8-1.7-13.2-3.2-19.2c-0.8-3.5-0.9-6.8-1.8-9.9
		c-0.3-1.1-0.1-2.2-0.6-3c-0.6-0.9-2.2-0.7-3.4-1c-4.1-1.1-9,0.1-12.7,0.6c-1.6,7.3-2.5,15.1-3.9,22.7
		C170.6,27.9,174.2,31.4,177.7,34.8 M174.1,23.5c-1.2-0.6-1.9-1.5-3-2.2v-0.4h0.6c0.5,0.6,1.6,1.3,2.4,1.6V23.5z"/>
	<path class="st0" d="M180.2,14c-0.1,0.2-0.1,0.4-0.2,0.6c-0.2,0.2-0.1,0-0.2,0.4c0.2,0.2,0.3,0.3,0.4,0.6c0.5,0,0.6,0,0.8-0.2
		c0.5-0.3,0.1,0.1,0.4-0.4c0.2-0.2,0.1-0.1,0.2-0.4c-0.2-0.2-0.3-0.3-0.4-0.6H180.2z"/>
	<path class="st0" d="M194.7,47.3h-1.5c-0.7-0.7-1.5-1.5-2.2-2.2c-2.9-0.7-5.1-2.9-8-4.4c-0.3-0.3-0.5-0.5-0.8-0.8
		c-3.9,0.6-4.7-1.6-4.6-4.6c-2.5-2.6-4.9-5.2-7.1-7.7c-0.9-0.6-1.6-1.4-2.4-2.2c-0.3,1.6-0.6,3.1-1,4.6c-0.9,3.9-0.9,7.8-1.8,11.5
		c-0.8,3.2-0.7,6.5-1.4,9.5v7.3c-0.3,0.6-0.7,0.3-0.8,1.4c1.2,0.2,2.1,0.7,3.2,1c1.9,0.5,4.9,0,6.5-0.2c0.8-1.8,1.5-4.2,2-6.1
		c0.5-2-0.1-2.1,0.8-3.8c1.7-0.7,5.5-1.3,7.3,0c0.7,0,1.1,0,1.4,0.4c1.1,1.5,0.6,4.1,1.2,6.1c0.3,1.1,0.8,2.4,1.2,3.4
		c1,0.4,7.1,1.8,8.3,1c1.4,0,1.9-0.2,2.2-1.2c0.5-0.8,0.2-3,0.2-4.2c0-3-0.5-4.8-1-6.9C195.8,48.7,195.2,48.1,194.7,47.3"/>
	<path class="st0" d="M210.1,56.1c-3.1-2.6-7.3-3.3-10.8-5.4c0.1,1.8,0.3,3.7,0.7,5c1.7,5.1,10.4,8.2,18.2,6.5
		c2-0.4,3.9-0.4,5.6-0.7c-3.6-2-7.6-3.8-11.6-5.5H210.1z"/>
	<path class="st0" d="M219.1,39.1v12.1c-0.4,0.6-2,0.9-2.6,1.4c-1.9,0-2.3-0.7-3.4-1.4c-1.5-3.6-0.6-8.9-1.6-13.3
		c-0.2-1.1,0.3-2.7-0.2-3.6v-21c0.6-1.3,2.5-2.2,4.6-2.2c1,1,2.3,1.6,2.8,3.2c0.7,2.1,0,5.5,1,7.1v0.4c2.6,0,6.4,0.8,8.9,0
		c0.5-0.2,0.9-0.6,1.6-0.8c1.1-9.1-0.4-15.8-6.1-18.8c-2.2-1.2-3.8-0.4-6.5-1c-1.5-0.3-4.4-0.3-5.9,0h-4c-3.6,1-6.7,3.8-7.9,7.1
		c-1,2.5-1.3,7.4-0.6,10.3c0.3,1.3,1.2,3.7,0.6,5.6c-0.1,0.5-0.8,1.1-1,1.6c-0.5,1.6-0.1,5,0.2,6.3c0.7,3.3-0.3,7.3,0.4,10.5v3.8
		c0,0.9,0,1.9,0.1,2.9c0.9,0.5,1.9,1.1,2.8,1.6c1.5,0.7,2.9,1.5,4.4,1.5c0.7,0,0.7,1.5,1.5,1.5c3.7,1.5,7.3,1.5,11,3.7
		c2,1,4,2.4,5.8,3.8c0.8-0.2,1.5-0.5,2.1-0.9c1.3-0.9,3.1-3,3.6-4.8c0.5-1.6,0-3.7,0.8-5V40.1C229.8,37.1,222.3,38.7,219.1,39.1
		 M207.4,16.3l-0.2,0.2H207c0.2-0.9,0.4-1.7,0.6-2.6h0.4C207.9,15.2,207.8,15.6,207.4,16.3 M222.8,41.7h-0.4v-0.8h0.4V41.7z
		 M224.2,47.4H224v-4.2c0.6,0.5,1.2,1.1,1.8,1.6C225.5,46,224.8,46.6,224.2,47.4"/>
	<path class="st0" d="M288.6,10.6c1.9,1.5,1.5,7.2,3,7.7c1.9,0,3.9,0,5.8,0c1.2,0,2.3-0.1,3.5-0.1c0-1.9,0-3.8,0-5.6V7.4
		c-1.1-2.7-6.6-6.3-10-6.4c-2.9,0-5.7,0-8.6,0c-0.8,0-1.7,0-2.5,0c-2.1,0.4-4.1,1.6-5.6,2.9c-5.6,4.5-4.3,19.4-0.2,24.7
		c4.9,6.3,16.6,10.1,15,20.5c-0.6,1.2-1.2,2.4-1.9,3.5c-1.1,0.6-5.3-1.7-5.8-2.3c-1.3-1.5-1.5-4-3.3-5.1c-2-1.2-3.8-0.4-5.9-0.3
		c-0.8,0-2.6,0.2-3.1,1.1c-0.5,0.9,0.1,4.1,0.5,5.6c0.2,1,0.4,2,0.6,3c0.2,0.9,0.4,1.7,0.6,2.6c3,4.4,12.7,5.1,17,4.5
		c2.5-0.3,5.7-0.7,7.7-1.9c6.6-3.8,6.6-16.5,2.8-22.5c-2.6-4.2-6.6-7.6-10.4-10.7c-1.4-1.3-2.8-2.5-4.2-3.8c-1.8-2.3-2.1-5.8-2-8.5
		C281.9,12.2,285.9,8.5,288.6,10.6 M297.6,13.2c0.1,0.1,0.2,0.1,0.3,0.2c-0.3,1.4-2.6,2.3-4.1,1.9l-0.1-0.2
		C294.2,13.5,296,13.7,297.6,13.2 M273.9,16.3h-0.5c-0.7-0.5-0.5-1.3,0.2-1.6C274.5,15,274.4,15.9,273.9,16.3 M277.9,15.2
		c-0.5,0-0.4-0.3-0.3-0.5c0.2,0.1,0.3,0.2,0.5,0.3L277.9,15.2z M289.5,33.6c0.3,0.1,0.6,0.2,0.9,0.3c-0.3,0.4-0.6,0.7-1.1,0.7
		l-0.2-0.1C289,34,289.2,33.8,289.5,33.6"/>
	<path class="st0" d="M158.8,0.7c-3.9,0.1-7.8,0.2-11.8,0.4c3.7,0.9,6.8,3.4,9.8,4.9c1.5,0.6,3.1,1.2,4.6,1.8c1,0.6,1.9,2.8,3.3,2.8
		l0.1-0.1c0-3.2,0-6.4,0-9.7C162.9,0.8,160.9,0.8,158.8,0.7"/>
	<path class="st0" d="M141.4,1.1c-1.8,0.3-3.6,0.6-5.5,0.9c-1.1,0.7-1.2,6.2-0.7,7.4c1.2,3.2,8.8,0.6,9.6,2.6c0,16.2,0,31.7,0,47.9
		c0.1,1.5,8.9,1.5,10.9,0.8c0-15,0.1-30,0.1-45.1c0.2-2.7,2.3-3.9,4.1-5.2c0.3-0.2,0.6-0.4,0.9-0.6c-0.7-0.5-1.4-1.1-2-1.6
		C154.2,5.1,148.2,1.7,141.4,1.1 M152.4,21.6c0.8,0.1,0.9,1.4,0.8,2c-0.2,0.1-0.4,0.1-0.5,0.2C152,23.4,152.2,22,152.4,21.6
		 M151.1,53.7c-1.4,0.7-2.4-2.7-1.8-4l0.2-0.1C150.4,49.9,151.9,53.4,151.1,53.7 M153.5,50.5c-0.1,0.1-0.2,0.1-0.4,0.2
		c-1-0.1-0.8-1.2-0.3-1.6h0.3C153.6,49.5,153.7,50,153.5,50.5 M151.6,42.8L151.6,42.8v-0.2c0.3-0.1,0.6-0.2,0.9-0.2
		c0.3,0,1-0.1,1.2,0.5C153.1,43.2,152.1,43.2,151.6,42.8 M149.6,30.2c-0.1-0.1-0.3-0.2-0.4-0.4c0.5-0.8-0.1-2.1,1-3.1
		c0.4,0.3,0.8,0.5,1.2,0.8c1.1,0.3,2-0.5,2.4,1C152.5,29.5,151.1,29.6,149.6,30.2"/>
	<path class="st0" d="M133.6,37.4c-1-2.4-3.6-4.3-5.4-6c-0.3-0.3-0.5-0.6-0.8-0.9c-1.4-3.7,4.5-6.1,5.4-9.5v-7.4c0.3-1,0.7-2,1-3
		c-0.1-1.5-1.3-2.9-2.2-4c-5.7-6.9-15.3-3.8-24.2-5.2c-0.5,0.1-3.4-0.3-4,0.5c-1.4,1.9,0.2,5.4,0.3,8.1c0.1,7.1,0.3,14.2,0.5,21.2
		c1.1,0.6,2.7,0.2,4,0.8l0,0.1l0,0.1c-1.3,0.6-4.6,0.2-5.2,1.6c0,8.8,0.1,17.6,0.1,26.4c3.2,0-1.3,1.5,9.7-0.1
		c0.1-8.5,0.2-17,0.3-25.5c0.7-1.9,3-3.1,5.1-3.2c5.4,6,4.9,15.1,4.8,22.5c0,1.8-0.1,3.6-0.1,5.5c0.4,0.8,9.1,2.2,10.1,1.7
		c0.6-0.3,0.8-1.1,0.8-1.5c-0.3-4.9-0.6-9.8-0.9-14.7C133,43,134.3,39.2,133.6,37.4 M130.1,10c0.2,0,0.4,0.1,0.6,0.1
		c0,0.6,0,1.2,0,1.9c-0.1,0-0.2,0.1-0.4,0.1c-0.4-0.6-0.6-1-0.6-1.9C129.9,10.1,130,10,130.1,10 M109.1,54.8
		c-0.4-0.3-2.3-1.2-2.4-1.8c0.6-0.9,1.3-0.5,2.2-0.8c0.3,0.1,0.7,0.2,1,0.3C109.6,53.3,109.3,54,109.1,54.8 M110.2,34.2
		c-0.3-0.2-0.5-0.2-0.8-0.7c0-0.7,0.4-0.8,0.7-1C110.8,32.9,110.8,33.8,110.2,34.2 M106.7,28.8c-0.3-1.5,1.6-2.3,2.8-2.7
		c1.1,0.3,2.8,1.1,3.3,2.2C112.1,30.5,108,29.6,106.7,28.8 M108.1,17.2c0.2,0.1,0.4,0.1,0.5,0.2c0.2,0.4,0.2,1.8-0.6,1.4
		C107.3,18.5,107.6,17.5,108.1,17.2 M108.2,14.5c0.2,0.1,0.3,0.2,0.5,0.2c0.3,0.6,0.2,1-0.3,1.4h-0.3c-0.1-0.2-0.3-0.3-0.4-0.5
		C107.5,15,107.8,14.7,108.2,14.5 M115.5,26.9c-1-1.6-2.2-11.7-1.7-13.8c0.3-0.7,0.5-1.4,0.8-2.2c0.5-0.6,4.9-2,3.6-3
		c-1.1-0.8-3.3-0.7-4.6-0.9c-3.6-0.5-5.2,1.3-6.4,4.6c0.3,0.6,0,3.4-0.5,4c-0.4,0.5-1.4-0.2-1.7-0.5c0.2-0.6,0.5-1.1,0.7-1.7
		c0.7-3.7-0.7-4.8,3.5-7.3l0-0.2c-0.6-0.8-1.1-0.7-2.1-0.9l0-0.1c0.5-0.5,1-0.9,1.5-1.4c1.1,0,1.6,0.6,2.4,1
		c0.8-0.1,1.5-0.2,2.3-0.4c3.8-0.9,6.6,0.2,8.5,3c-0.3,1.5-1.1,2.2-1,3.8c0.4,0.9,0.8,1.9,1.1,2.8C123.2,19.9,123.6,28,115.5,26.9
		 M126.3,52.9c0.2-1.1,2.2-1.6,2.9-2c0.1,0,0.2,0.1,0.3,0.1C129.7,52.7,127.3,54.8,126.3,52.9"/>
</g>
</svg>
