<svg version="1.1" id="logo" xmlns="http://www.w3.org/2000/svg" xmlns:xlink="http://www.w3.org/1999/xlink" x="0px" y="0px" viewBox="0 0 728.8 786" style="enable-background:new 0 0 728.8 786;" xml:space="preserve">
<path d="M728.8,298.2c0.8-17.6-37.5-28.3-49.8-28.3c-47,0-107.5,47.8-136.6,101.2c-16.1,28.5-64.2,66.6-105.5,68.1
	c-35.2,1.3-64.3-33.7-73.5-69.7c39.8,6.9,135.5-29.9,137.1-82.7c0.8-19.9-6.1-33.7-25.3-33.7c-47.5,0-142.4,92.7-173.8,119.5
	c6.9-14.5,21.4-56.2,29.1-70c67.4-45.2,274.9-165.1,278.7-258.5c0.8-28.3-19.9-36-41.3-36c-83,0-199,169.7-266.9,285
	c-27.2,12.8-56.2,25.5-85.1,38.2c5.4-20.4,8.1-40.6,7.3-59.4c-1.1-22.2-11.5-36.7-32.9-34.9c-38.9,3.3-79.3,53.5-101.1,86.1
	C124.6,233.3,199.7,121,261.3,49.7c8.4-9.9,26.3-25.3,29.1-37.8c-1-11.4-17.2-12.4-24.8-11.7C219.8,4,110.4,201.5,86.7,249.6
	c-25.1,48.2-63.7,129.1-61.4,184.2c0,0.2,0,0.3,0,0.5C10,448.5,0.8,463,0,477.8c-0.7,14.4,9.3,23.3,19,27.2
	c9.6,4.5,25.6,3.2,32.5,2.6c65.3-5.5,129.2-77.6,157-153.6c28-13,54.8-24.8,77.1-34.5c-9.9,17.5-18.4,33-24.9,45.5
	c-10,19.1-38.3,73.5-39.1,93.4c-0.8,10,16.1,12.3,22.2,12.3c8.4,0,16.8-2.3,24.5-5.4c4.6-44.4,43.6-78.1,59.7-87.3
	c3.8,26.8,19.1,58.2,41.4,76.6c30.6,25.3,70.4,18.9,99.4,2.5c20.6-11.6,37.3-24.6,57.6-43.4c8.1-7.5,5.9-5.1,2.4-9.9
	c-2.2,8.1-3.6,16-3.8,23.8c-0.8,21.4,10,39.1,28.3,39.1c36,0,63.6-33.7,85-63.6l-14.5,59.7C527.4,477.4,277,570.1,272.4,702.5
	c-2.3,59,52.8,83.5,98.8,83.5c144.7,0,248.1-167.7,292.5-305.5c4.6-0.8,8.4-0.8,13.8-0.8c10.7,0,19.9,2.3,29.1,7.7
	c5.4,0.8,6.9,3.1,7.7-3.1c0.8-21.4-32.9-22.2-46.7-22.2c13.8-50.5,29.1-100.3,43.6-150.8C718.1,309,725.7,306.7,728.8,298.2z
	 M134.7,290.1c21.9-23.4,50.6-38.1,46.8,8.4c-0.3,16-2.8,33.5-7.2,51.3c-39.4,17.8-76.7,35.6-106.6,53.8
	C81.1,364.6,107.9,317.8,134.7,290.1z M100.5,472.7c-25.7,13.5-48.8,19.6-65.2,12.8c-8.9-3.6-8.7-8.9-6.3-17.9
	c0.9-1.9,2.1-3.8,3.5-5.8c6,10.3,15.9,16.1,31.1,14.8c4.6-0.4,9-3.1,8.5-8.4c-0.1-10-12.2-8.2-13.2-19.6c-0.2-3.8,0.2-8.1,0.8-12.7
	c26.7-20,66.3-41.8,107.5-62.1C153.5,413.4,130.4,451.3,100.5,472.7z M570.8,42.7c10,2.3,10.7,8.4,10,19.1
	c-14.9,57.7-111.6,128.9-182.7,178.1c-15.2,10.7-33.4,21.3-53.7,31.9C383.1,208.4,505.5,26.7,570.8,42.7z M363.3,349.7
	c13.8-13.8,69.7-62,85-62c5.4,0,9.2,4.6,9.2,9.2c-2.3,38.3-65.9,59-88.8,59C365.6,355.8,358.7,355.1,363.3,349.7z M378.9,769.9
	c-33.7,0-72-21.4-71.2-59l0.8-12.3c3.8-113.3,229.7-204.4,313.9-217.5C591,600.7,505.2,769.9,378.9,769.9z M585.6,439.9
	c-31.4,19.9-36.8,0-26-28.3c17.6-46.7,80.4-107.2,118.7-107.2C655.3,360.3,617.8,420,585.6,439.9z"></path>
</svg>
