<?xml version="1.0" encoding="utf-8"?>
<!-- Generator: Adobe Illustrator 21.0.0, SVG Export Plug-In . SVG Version: 6.00 Build 0)  -->
<svg version="1.1" id="Layer_1" xmlns="http://www.w3.org/2000/svg" xmlns:xlink="http://www.w3.org/1999/xlink" x="0px" y="0px"
	 viewBox="0 0 888.8 127.8" style="enable-background:new 0 0 888.8 127.8;" xml:space="preserve">
<g>
	<path d="M0,49.3c0-1.1,0.9-2.2,2.2-2.2h26.5c13.4,0,24.4,9.2,24.4,21.1c0,8.7-7.8,15.1-13.2,18c6,2.5,15.2,8.1,15.2,18.5
		c0,12.7-11.2,21.9-24.8,21.9H2.2c-1.2,0-2.2-1-2.2-2.2V49.3z M26.6,79.4c4.3,0,8-3.6,8-8.2c0-4.5-3.6-7.7-8-7.7h-8.9v15.9H26.6z
		 M28.1,110.4c4.4,0,8.2-3.6,8.2-8.3c0-4.5-4.9-8-9.3-8h-9.2v16.2H28.1z"/>
	<path d="M62.1,49.3c0-1.1,0.9-2.2,2.2-2.2h34c13.6,0,24.8,11,24.8,24.5c0,10.5-6.9,18.9-16.8,22.8l15.6,28.9c0.8,1.5,0,3.3-1.9,3.3
		h-15.1c-0.9,0-1.6-0.6-1.8-1L87.8,95.6H80v29c0,1.1-1,2.2-2.2,2.2H64.3c-1.2,0-2.2-1-2.2-2.2V49.3z M96.8,81.1
		c4.7,0,8.6-4.3,8.6-9.1s-4-8.6-8.6-8.6H80v17.7H96.8z"/>
	<path d="M130.3,49.3c0-1.1,0.9-2.2,2.2-2.2h47c1.2,0,2.2,1,2.2,2.2v12.4c0,1.1-0.9,2.2-2.2,2.2H148v14.1h25.9c1.1,0,2.2,1,2.2,2.2
		v12.4c0,1.2-1,2.2-2.2,2.2H148V110h31.5c1.2,0,2.2,1,2.2,2.2v12.4c0,1.1-0.9,2.2-2.2,2.2h-47c-1.2,0-2.2-1-2.2-2.2V49.3z"/>
	<path d="M207.1,63.9h-16.2c-1.2,0-2.2-1-2.2-2.2V49.3c0-1.1,0.9-2.2,2.2-2.2h50.4c1.2,0,2.2,1,2.2,2.2v12.4c0,1.1-0.9,2.2-2.2,2.2
		h-16.2v60.7c0,1.1-1,2.2-2.2,2.2h-13.6c-1.1,0-2.2-1-2.2-2.2V63.9z"/>
	<path d="M268.7,63.9h-16.2c-1.2,0-2.2-1-2.2-2.2V49.3c0-1.1,0.9-2.2,2.2-2.2h50.4c1.2,0,2.2,1,2.2,2.2v12.4c0,1.1-0.9,2.2-2.2,2.2
		h-16.2v60.7c0,1.1-1,2.2-2.2,2.2h-13.6c-1.1,0-2.2-1-2.2-2.2V63.9z"/>
	<path d="M376.6,46.1c9.5,0,20,4,27.7,10.7c1,0.8,1.1,2.2,0.2,3.1l-9,9.5c-0.9,0.8-2.2,0.8-3.1,0.1c-4.3-4-9.3-5.5-14.9-5.5
		c-12.4,0-22.4,10.5-22.4,23c0,12.4,10.1,22.6,22.5,22.6c3.3,0,6.7-0.5,10.1-1.8v-6.6h-7.2c-1.2,0-2.2-0.9-2.2-2V87.9
		c0-1.2,0.9-2.2,2.2-2.2h22.8c1.1,0,2,1,2,2.2l0.1,30.6c0,0.6-0.5,1.5-0.9,1.8c0,0-11.7,7.4-28.2,7.4c-22.6,0-40.8-18-40.8-40.7
		C335.8,64.3,354,46.1,376.6,46.1z"/>
	<path d="M415.6,49.3c0-1.1,0.9-2.2,2.2-2.2h34c13.6,0,24.8,11,24.8,24.5c0,10.5-6.9,18.9-16.8,22.8l15.6,28.9
		c0.8,1.5,0,3.3-1.9,3.3h-15.1c-0.9,0-1.6-0.6-1.8-1l-15.1-30.1h-7.8v29c0,1.1-1,2.2-2.2,2.2h-13.5c-1.2,0-2.2-1-2.2-2.2V49.3z
		 M450.3,81.1c4.7,0,8.6-4.3,8.6-9.1s-4-8.6-8.6-8.6h-16.8v17.7H450.3z"/>
	<path d="M484.3,49.3c0-1.1,1-2.2,2.2-2.2h13.6c1.1,0,2.2,1,2.2,2.2v75.2c0,1.1-1,2.2-2.2,2.2h-13.6c-1.1,0-2.2-1-2.2-2.2V49.3z"/>
	<path d="M513.9,115.9l5.3-9.4c0.9-1.5,3.1-1.2,3.9-0.7c0.5,0.2,8.6,6.2,16.1,6.2c4.5,0,7.8-2.8,7.8-6.8c0-4.8-4-8.4-11.7-11.5
		c-9.8-3.9-22-11.5-22-25.1c0-11.2,8.7-22.6,26.2-22.6c11.8,0,20.9,6,24.3,8.5c1.4,0.8,1.1,2.8,0.7,3.6l-5.8,8.7
		c-0.8,1.2-2.8,2.3-3.9,1.5c-1-0.6-9.3-6.8-16.2-6.8c-4.1,0-7.2,2.7-7.2,5.8c0,4.2,3.4,7.4,12.4,11c8.9,3.5,23,10.5,23,25.9
		c0,11.7-10.1,23.5-26.8,23.5c-14.8,0-23-6.1-25.6-8.7C513.3,117.9,513,117.5,513.9,115.9z"/>
	<path d="M576.1,49.3c0-1.1,1-2.2,2.2-2.2h13.6c1.1,0,2.2,1,2.2,2.2v75.2c0,1.1-1,2.2-2.2,2.2h-13.6c-1.1,0-2.2-1-2.2-2.2V49.3z"/>
	<path d="M606.1,48.1c0-1.1,1-2,2.2-2h2.8l45.3,43.6h0.1V49.3c0-1.1,0.9-2.2,2.2-2.2h13.6c1.1,0,2.2,1,2.2,2.2v76.5c0,1.1-1,2-2.2,2
		h-1.8c-0.3,0-1.2-0.3-1.5-0.6l-44.9-45.1h-0.1v42.4c0,1.1-0.9,2.2-2.2,2.2h-13.5c-1.1,0-2.2-1-2.2-2.2L606.1,48.1z"/>
	<path d="M724.6,46.1c9.5,0,20,4,27.7,10.7c1,0.8,1.1,2.2,0.2,3.1l-9,9.5c-0.9,0.8-2.2,0.8-3.1,0.1c-4.3-4-9.3-5.5-14.9-5.5
		c-12.4,0-22.4,10.5-22.4,23c0,12.4,10.1,22.6,22.5,22.6c3.3,0,6.7-0.5,10.1-1.8v-6.6h-7.2c-1.2,0-2.2-0.9-2.2-2V87.9
		c0-1.2,0.9-2.2,2.2-2.2h22.8c1.1,0,2,1,2,2.2l0.1,30.6c0,0.6-0.5,1.5-0.9,1.8c0,0-11.7,7.4-28.2,7.4c-22.6,0-40.8-18-40.8-40.7
		C683.8,64.3,702,46.1,724.6,46.1z"/>
	<path d="M765.9,49.3c0-1.1,0.9-2.2,2.2-2.2h47c1.2,0,2.2,1,2.2,2.2v12.4c0,1.1-0.9,2.2-2.2,2.2h-31.5v14.1h25.9
		c1.1,0,2.2,1,2.2,2.2v12.4c0,1.2-1,2.2-2.2,2.2h-25.9V110h31.5c1.2,0,2.2,1,2.2,2.2v12.4c0,1.1-0.9,2.2-2.2,2.2h-47
		c-1.2,0-2.2-1-2.2-2.2V49.3z"/>
	<path d="M827.9,49.3c0-1.1,0.9-2.2,2.2-2.2h34c13.6,0,24.8,11,24.8,24.5c0,10.5-6.9,18.9-16.8,22.8l15.6,28.9
		c0.8,1.5,0,3.3-1.9,3.3h-15.1c-0.9,0-1.6-0.6-1.8-1l-15.1-30.1h-7.8v29c0,1.1-1,2.2-2.2,2.2h-13.5c-1.2,0-2.2-1-2.2-2.2V49.3z
		 M862.6,81.1c4.7,0,8.6-4.3,8.6-9.1s-4-8.6-8.6-8.6h-16.8v17.7H862.6z"/>
</g>
<g>
	<path d="M101,4.1c0,0-0.4,2.1-0.8,3.7l-4.7,17.5h-2.9L86.1,0.4h2.5l4.8,19.3c0.3,1.3,0.6,2.6,0.6,2.6h0.1c0,0,0.2-1.4,0.6-2.6
		l5.2-19.3h2.3l5.2,19.3c0.4,1.3,0.5,2.6,0.6,2.6h0.1c0,0,0.2-1.4,0.6-2.6l5-19.3h2.5l-6.6,24.8h-2.9l-4.7-17.5
		C101.5,6.2,101.1,4.1,101,4.1L101,4.1z"/>
	<path d="M121.1,0.4h14v2.2h-11.5v9h9.4v2.2h-9.4V23h12.2v2.2h-14.6V0.4z"/>
	<path d="M141.2,0.4h2.4V23h11.5v2.2h-13.9V0.4z"/>
	<path d="M169.3,0c5.9,0,8.9,3.2,8.9,3.2L176.9,5c0,0-2.9-2.8-7.6-2.8c-5.8,0-10,4.5-10,10.4c0,5.9,4.2,10.8,10.1,10.8
		c5,0,8-3.3,8-3.3l1.4,1.7c0,0-3.4,3.8-9.5,3.8c-7.3,0-12.6-5.8-12.6-13C156.8,5.5,162.2,0,169.3,0z"/>
	<path d="M194.9,0c7,0,12.6,5.5,12.6,12.7c0,7.3-5.6,13-12.6,13s-12.6-5.7-12.6-13C182.3,5.5,187.9,0,194.9,0z M194.9,23.4
		c5.6,0,10.1-4.7,10.1-10.7c0-5.9-4.5-10.4-10.1-10.4c-5.6,0-10.1,4.5-10.1,10.4C184.8,18.7,189.3,23.4,194.9,23.4z"/>
	<path d="M214.2,0.4h2.5l6.5,14.6c0.6,1.3,1.2,3,1.2,3h0.1c0,0,0.7-1.8,1.2-3l6.5-14.6h2.5l2,24.8h-2.4l-1.4-17.4
		c-0.1-1.3-0.1-3.5-0.1-3.5h-0.1c0,0-0.7,2.2-1.3,3.5l-5.8,12.7h-2.3l-5.8-12.7c-0.6-1.2-1.3-3.5-1.3-3.5h-0.1c0,0,0,2.2-0.1,3.5
		l-1.4,17.4h-2.4L214.2,0.4z"/>
	<path d="M243.2,0.4h14v2.2h-11.5v9h9.4v2.2h-9.4V23h12.2v2.2h-14.6V0.4z"/>
	<path d="M278.4,2.6h-8.9V0.4h20.3v2.2h-8.9v22.6h-2.4V2.6z"/>
	<path d="M304,0c7,0,12.6,5.5,12.6,12.7c0,7.3-5.6,13-12.6,13s-12.6-5.7-12.6-13C291.4,5.5,297,0,304,0z M304,23.4
		c5.6,0,10.1-4.7,10.1-10.7c0-5.9-4.5-10.4-10.1-10.4c-5.6,0-10.1,4.5-10.1,10.4C293.9,18.7,298.4,23.4,304,23.4z"/>
	<path d="M337.2,2.6h-8.9V0.4h20.3v2.2h-8.9v22.6h-2.4V2.6z"/>
	<path d="M352.4,0.4h2.4v11.3h14.4V0.4h2.4v24.8h-2.4V13.9h-14.4v11.3h-2.4V0.4z"/>
	<path d="M378.9,0.4h14v2.2h-11.5v9h9.4v2.2h-9.4V23h12.2v2.2h-14.6V0.4z"/>
	<path d="M408.5,0.4h8C424,0.4,429,5,429,12.8c0,7.9-5,12.4-12.5,12.4h-8V0.4z M416.3,23c6.1,0,10.2-3.6,10.2-10.2
		c0-6.6-4.1-10.2-10.2-10.2h-5.3V23H416.3z"/>
	<path d="M434.6,0.4h2.4v24.8h-2.4V0.4z"/>
	<path d="M455.1,0c5.8,0,8.8,2.9,8.8,2.9l-1.3,1.8c0,0-2.9-2.5-7.4-2.5c-6,0-10.1,4.6-10.1,10.5c0,6.1,4.2,10.6,9.8,10.6
		c4.8,0,7.8-3.6,7.8-3.6v-4.2h-4.2v-2.2h6.6v11.9h-2.3v-1.9c0-0.5,0-1.1,0-1.1h-0.1c0,0-2.9,3.4-8.1,3.4c-6.8,0-12.1-5.5-12.1-12.8
		C442.6,5.6,448,0,455.1,0z"/>
	<path d="M471,0.4h2.4v24.8H471V0.4z"/>
	<path d="M486.2,2.6h-8.9V0.4h20.3v2.2h-8.9v22.6h-2.4V2.6z"/>
	<path d="M512.1,17.3h-10l-2.8,7.9h-2.6l9.1-24.8h2.6l9.1,24.8h-2.6L512.1,17.3z M507,3c0,0-0.5,2-1,3.2l-3.3,9h8.5l-3.2-9
		C507.6,5,507.1,3,507,3L507,3z"/>
	<path d="M521.5,0.4h2.4V23h11.5v2.2h-13.9V0.4z"/>
	<path d="M549.3,0.4h8.6c4.4,0,7.7,2.9,7.7,7.5c0,4.6-3.2,7.6-7.7,7.6h-6.1v9.7h-2.4V0.4z M557.6,13.3c3.3,0,5.5-2,5.5-5.4
		c0-3.4-2.2-5.3-5.4-5.3h-5.9v10.7H557.6z"/>
	<path d="M581.4,0c7,0,12.6,5.5,12.6,12.7c0,7.3-5.6,13-12.6,13s-12.6-5.7-12.6-13C568.7,5.5,574.3,0,581.4,0z M581.4,23.4
		c5.6,0,10.1-4.7,10.1-10.7c0-5.9-4.5-10.4-10.1-10.4c-5.6,0-10.1,4.5-10.1,10.4C571.3,18.7,575.8,23.4,581.4,23.4z"/>
	<path d="M599.5,0.4h7.3c2.5,0,3.7,0.2,4.7,0.7c2.3,1,3.7,3.4,3.7,6.4c0,3.4-1.9,5.9-4.7,6.7v0.1c0,0,0.2,0.3,0.6,1l5.4,10h-2.8
		l-5.6-10.4h-6.2v10.4h-2.4V0.4z M607.8,12.6c3,0,4.9-1.9,4.9-5c0-2-0.8-3.6-2.3-4.3c-0.7-0.4-1.6-0.6-3.5-0.6h-5v10H607.8z"/>
	<path d="M627.2,2.6h-8.9V0.4h20.3v2.2h-8.9v22.6h-2.4V2.6z"/>
	<path d="M642.4,0.4h13.1v2.2h-10.6v9.3h9.1v2.2h-9.1v11.1h-2.4V0.4z"/>
	<path d="M671.5,0c7,0,12.6,5.5,12.6,12.7c0,7.3-5.6,13-12.6,13s-12.6-5.7-12.6-13C658.9,5.5,664.5,0,671.5,0z M671.5,23.4
		c5.6,0,10.1-4.7,10.1-10.7c0-5.9-4.5-10.4-10.1-10.4c-5.6,0-10.1,4.5-10.1,10.4C661.4,18.7,665.9,23.4,671.5,23.4z"/>
	<path d="M689.6,0.4h2.4V23h11.5v2.2h-13.9V0.4z"/>
	<path d="M707.9,0.4h2.4v24.8h-2.4V0.4z"/>
	<path d="M728.5,0c7,0,12.6,5.5,12.6,12.7c0,7.3-5.6,13-12.6,13s-12.6-5.7-12.6-13C715.9,5.5,721.5,0,728.5,0z M728.5,23.4
		c5.6,0,10.1-4.7,10.1-10.7c0-5.9-4.5-10.4-10.1-10.4c-5.6,0-10.1,4.5-10.1,10.4C718.4,18.7,722.9,23.4,728.5,23.4z"/>
	<path d="M767.1,0c7,0,12.6,5.5,12.6,12.7c0,7.3-5.6,13-12.6,13s-12.6-5.7-12.6-13C754.4,5.5,760,0,767.1,0z M767.1,23.4
		c5.6,0,10.1-4.7,10.1-10.7c0-5.9-4.5-10.4-10.1-10.4c-5.6,0-10.1,4.5-10.1,10.4C757,18.7,761.5,23.4,767.1,23.4z"/>
	<path d="M785.2,0.4h13.1v2.2h-10.6v9.3h9.1v2.2h-9.1v11.1h-2.4V0.4z"/>
</g>
</svg>
